<svg xmlns="http://www.w3.org/2000/svg" xmlns:xlink="http://www.w3.org/1999/xlink" width="65" height="34" viewBox="0 0 65 34"><defs><path id="a" d="M201 31a6 6 0 0 1 6-6h51a6 6 0 0 1 6 6v20a6 6 0 0 1-6 6h-51a6 6 0 0 1-6-6z"/><path id="b" d="M239.52 42.72a3.9 3.9 0 0 1-.05-4.66c.28-.36.72-.79 1.34-1.27a4.55 4.55 0 0 0-3.72-1.79c-.56 0-1.24.12-2.04.37a6.6 6.6 0 0 1-1.68.37 7.9 7.9 0 0 1-1.62-.33 8.73 8.73 0 0 0-2.08-.32c-1.35 0-2.46.52-3.34 1.56A6.04 6.04 0 0 0 225 40.7c0 1.74.58 3.56 1.73 5.44 1.17 1.87 2.35 2.81 3.54 2.81.4 0 .91-.12 1.55-.37a4.8 4.8 0 0 1 1.67-.36c.51 0 1.1.12 1.77.35a6 6 0 0 0 1.65.35c1 0 2.01-.71 3.02-2.13.66-.9 1.14-1.8 1.45-2.7-.7-.2-1.32-.65-1.86-1.37"/><path id="d" d="M235.49 34.42c.5-.45.86-.95 1.1-1.49.22-.54.34-1.03.34-1.48l-.01-.1-.01-.11-.02-.12a.5.5 0 0 1-.03-.12c-1.38.3-2.36.83-2.94 1.6-.59.78-.9 1.71-.92 2.79a7.5 7.5 0 0 0 1.22-.19 3.3 3.3 0 0 0 1.27-.78"/><radialGradient id="c" cx="228.74" cy="48.07" r="20.51" gradientUnits="userSpaceOnUse"><stop offset="0" stop-color="#dfdfdf"/><stop offset="1" stop-color="#bababa"/></radialGradient><radialGradient id="e" cx="233.93" cy="34.73" r="5.61" gradientUnits="userSpaceOnUse"><stop offset="0" stop-color="#dfdfdf"/><stop offset="1" stop-color="#bababa"/></radialGradient></defs><desc>Generated with Avocode.</desc><g transform="translate(-200 -24)"><use fill="#fff" xlink:href="#a"/></g><g transform="translate(-200 -24)"><use fill="url(#c)" xlink:href="#b"/></g><g transform="translate(-200 -24)"><use fill="url(#e)" xlink:href="#d"/></g></svg>