<svg xmlns="http://www.w3.org/2000/svg" xmlns:xlink="http://www.w3.org/1999/xlink" width="32" height="32" viewBox="0 0 32 32"><defs><path id="a" d="M322 546a15 15 0 1 1 30 0 15 15 0 0 1-30 0z"/><path id="d" d="M308 551a20 20 0 1 1 40 0 20 20 0 0 1-40 0z"/><path id="f" d="M325 537a20 20 0 1 1 40 0 20 20 0 0 1-40 0z"/><mask id="c" width="2" height="2" x="-1" y="-1"><path fill="#fff" d="M322 531h30v30h-30z"/><use xlink:href="#a"/></mask><filter id="b" width="52" height="52" x="311" y="520" filterUnits="userSpaceOnUse"><feOffset in="SourceGraphic" result="FeOffset1022Out"/><feGaussianBlur in="FeOffset1022Out" result="FeGaussianBlur1023Out" stdDeviation="0.4 0.4"/></filter><radialGradient id="e" cx="329.35" cy="554.04" r="18.01" gradientUnits="userSpaceOnUse"><stop offset="0" stop-color="#fbaf1c"/><stop offset=".3" stop-color="#fbb01c"/><stop offset="1" stop-color="#fcb71c" stop-opacity="0"/></radialGradient><radialGradient id="g" cx="348.45" cy="537" r="15.29" gradientUnits="userSpaceOnUse"><stop offset="0" stop-color="#c40096"/><stop offset=".55" stop-color="#c40096" stop-opacity=".94"/><stop offset="1" stop-color="#c1019a" stop-opacity="0"/></radialGradient></defs><desc>Generated with Avocode.</desc><g transform="translate(-321 -530)"><g filter="url(#b)"><use fill="none" stroke-opacity=".5" stroke-width="0" mask="url(&quot;#c&quot;)" xlink:href="#a"/><use fill-opacity=".5" xlink:href="#a"/></g><use fill="#e60211" xlink:href="#a"/></g><g transform="translate(-321 -530)"><use fill="#e60211" xlink:href="#a"/></g><g transform="translate(-321 -530)"><use fill="url(#e)" xlink:href="#d"/></g><g transform="translate(-321 -530)"><use fill="url(#g)" xlink:href="#f"/></g></svg>