<svg xmlns="http://www.w3.org/2000/svg" xmlns:xlink="http://www.w3.org/1999/xlink" width="229" height="109" viewBox="0 0 229 109"><defs><path id="a" d="M153.14 310c7.68 0 17.54-36.34 20.79-49.66.49-2.01-1.62-3.74-3.63-3.26a6.49 6.49 0 0 0-4.8 4.83c-1.72 7.39-5.95 19.88-10.29 29.59-1.11 2.46-4.39-4.3-4.05-23.93.14-7.67-6.41-5.11-9.16 1.24 0 0 2.41 41.19 11.14 41.19"/><path id="b" d="M231.63 275.5c3.83-11.42 17.23-5.71 17.23-5.71s-9.57 29.67-16.28 26.81c-3.87-1.65-3.73-12.83-.95-21.1zm-47.03 0c3.83-11.42 17.24-5.71 17.24-5.71s-9.58 29.67-16.28 26.81c-3.88-1.65-3.74-12.83-.96-21.1zm112.15-18.57a6.47 6.47 0 0 0-4.83 4.81c-1.73 7.37-5.86 23.49-10.83 32.89-7.06 13.34-5.96-13.31 1.92-28.32 3.56-6.79-7.67-5.71-10.43.63 0 0-3.75 9.12-5.82 18.85-1.33 4.29-4.27 11.83-8.89 12.91-6.51 1.52 3.03-29.96 3.06-30.05l8.75-29.89s-6.01-15.44-10.16-5.32c-4.59 11.22-8.55 28.17-8.55 28.17s-10.72-4.94-19.73-1.14c-.57.24-11.07 7.22-12.13 21.53l-.01-.02s-1.75 15.19-8.26 16.72c-6.51 1.52 3.06-30.05 3.06-30.05l8.75-29.89s-6.01-15.44-10.15-5.32c-4.6 11.22-8.56 28.17-8.56 28.17s-10.72-4.94-19.72-1.14c-.75.32-18.61 12.23-9.77 37.09 4.43 12.45 16.5 9.15 24.9-.74.25 4.86 1.84 9.67 7.08 9.86 6.6.24 11.39-6.89 14.05-12.27a45.4 45.4 0 0 0 1 3.15c4.42 12.45 16.5 9.15 24.9-.74.25 4.86 1.83 9.67 7.08 9.86 5.14.19 9.19-4.11 11.98-8.56.3 6.49 2.86 11.27 9.96 10.76 2.81-.2 5.29-1.23 7.48-2.87l-1.7 6.4c-8.69 7.04-14.96 12.95-10.5 21.11 6.78 12.4 11.86-.12 11.86-.12l-.09.04 3.35-12.8c3.33-3.52 7.75-7.88 13.55-13.3.92-.85 3.26-15.82 1.81-13.84-3.32 4.53-7.32 8.4-11.35 11.86l5.91-22.57c2.65-8.7 4.41-17.48 6.2-22.66.68-1.96-3.14-3.68-5.17-3.2z"/><path id="c" d="M96.08 293.64c10.6-8.22 37.56-27.61 27.95-4.66-4.3 10.28-17.89 18.91-29.22 24.86zm8.82-41.86s31.69-17.76 18.44 6.09c-7.15 12.86-19.39 20.19-26.5 23.57l1.59-25.45zm16.94 19.37c6.79-6.65 12.54-13.76 14.38-20.01 5.37-18.36-8.07-23.04-20.02-18.56-9.91 3.72-28.75 15.69-38.67 22.17a8.13 8.13 0 0 0-3.65 5.92l-.87 7.68c-.2 1.79 1.8 3 3.31 2.01l11.64-7.57c-1 13.7-3.3 45.07-4.09 56.44-1.62.77-2.98 1.42-3.99 1.93a3.5 3.5 0 0 0-1.91 3.17l-.47 6.24a3.52 3.52 0 0 0 5.31 2.94c14.2-8.32 44.27-26.83 52.76-44.63 6.91-14.48-1.93-20.51-13.73-17.73z"/><path id="d" d="M261.06 316.68c-56.33-7.46-125.72 2.89-134 4.18-.53.08-1.01.35-1.36.75l-4.16 4.78c-1.38 1.59.07 3.97 2.17 3.56 70.77-13.66 123.7-4.45 134.38-2.29 1.13.23 2.25-.4 2.6-1.48l2.2-6.64a2.2 2.2 0 0 0-1.83-2.86"/></defs><desc>Generated with Avocode.</desc><g transform="translate(-73 -230)"><use fill="#fff" xlink:href="#a"/></g><g transform="translate(-73 -230)"><use fill="#fff" xlink:href="#b"/></g><g transform="translate(-73 -230)"><use fill="#fff" xlink:href="#c"/></g><g transform="translate(-73 -230)"><use fill="#fff" xlink:href="#d"/></g></svg>