<svg xmlns="http://www.w3.org/2000/svg" xmlns:xlink="http://www.w3.org/1999/xlink" width="65" height="34" viewBox="0 0 65 34"><defs><path id="a" d="M273 31a6 6 0 0 1 6-6h51a6 6 0 0 1 6 6v20a6 6 0 0 1-6 6h-51a6 6 0 0 1-6-6z"/><path id="b" d="M297.71 32c-.4.14-.71.52-.71 1l.02 15.86c0 .48.31.85.71 1l9.16-8.93z"/><path id="d" d="M310.04 38.21l-11.18-6.08a1.05 1.05 0 0 0-.86-.07l9.18 8.94z"/><path id="f" d="M298 49.92c.27.1.58.1.87-.06l11.1-6.13-2.81-2.73z"/><path id="h" d="M313.52 39.99L309.86 38 307 40.79l2.8 2.72 3.72-2.05a.84.84 0 0 0 0-1.47"/><radialGradient id="c" cx="297.57" cy="49.61" r="17.61" gradientUnits="userSpaceOnUse"><stop offset="0" stop-color="#00e1ff"/><stop offset="1" stop-color="#00cfff"/></radialGradient><radialGradient id="e" cx="309.48" cy="39.32" r="13.62" gradientUnits="userSpaceOnUse"><stop offset="0" stop-color="#00ef70"/><stop offset="1" stop-color="#00d970"/></radialGradient><radialGradient id="g" cx="308.41" cy="42.15" r="13.04" gradientUnits="userSpaceOnUse"><stop offset="0" stop-color="#ff363d"/><stop offset="1" stop-color="#de234f"/></radialGradient><radialGradient id="i" cx="307" cy="41" r="7" gradientUnits="userSpaceOnUse"><stop offset="0" stop-color="#ffc100"/><stop offset="1" stop-color="#ffd800"/></radialGradient></defs><desc>Generated with Avocode.</desc><g transform="translate(-272 -24)"><use fill="#fff" xlink:href="#a"/></g><g transform="translate(-272 -24)"><use fill="url(#c)" xlink:href="#b"/></g><g transform="translate(-272 -24)"><use fill="url(#e)" xlink:href="#d"/></g><g transform="translate(-272 -24)"><use fill="url(#g)" xlink:href="#f"/></g><g transform="translate(-272 -24)"><use fill="url(#i)" xlink:href="#h"/></g></svg>